<?xml version="1.0" encoding="UTF-8"?>
<svg version="1.1" xmlns="http://www.w3.org/2000/svg" width="64" height="64">
<path d="M0 0 C21.12 0 42.24 0 64 0 C64 21.12 64 42.24 64 64 C42.88 64 21.76 64 0 64 C0 42.88 0 21.76 0 0 Z " fill="#FDFDFD" transform="translate(0,0)"/>
<path d="M0 0 C3.96 0 7.92 0 12 0 C15 7.5 15 7.5 15 12 C10.545 12.495 10.545 12.495 6 13 C5.7326001 13.74685059 5.4652002 14.49370117 5.18969727 15.26318359 C3.9819192 18.63425204 2.77223411 22.00463303 1.5625 25.375 C1.14162109 26.550625 0.72074219 27.72625 0.28710938 28.9375 C-0.11572266 30.05898438 -0.51855469 31.18046875 -0.93359375 32.3359375 C-1.30540771 33.37282715 -1.67722168 34.4097168 -2.06030273 35.47802734 C-3 38 -3 38 -4 40 C-7.3 40 -10.6 40 -14 40 C-11.52430444 31.29704291 -8.45624393 22.85171896 -5.3125 14.375 C-4.79594774 12.97536233 -4.27966971 11.57562342 -3.76367188 10.17578125 C-2.51226966 6.78268275 -1.25717674 3.39096389 0 0 Z " fill="#111111" transform="translate(26,12)"/>
<path d="M0 0 C2.05078125 0.03255208 4.1015625 0.06510417 6.15234375 0.09765625 C15.15234375 19.55575681 15.15234375 19.55575681 15.15234375 24.09765625 C11.85234375 24.09765625 8.55234375 24.09765625 5.15234375 24.09765625 C4.49234375 20.79765625 3.83234375 17.49765625 3.15234375 14.09765625 C2.49234375 14.09765625 1.83234375 14.09765625 1.15234375 14.09765625 C1.01957031 14.73574219 0.88679688 15.37382813 0.75 16.03125 C0.57339844 16.85753906 0.39679687 17.68382813 0.21484375 18.53515625 C0.04082031 19.35886719 -0.13320313 20.18257812 -0.3125 21.03125 C-0.84765625 23.09765625 -0.84765625 23.09765625 -1.84765625 24.09765625 C-3.36693663 24.16945589 -4.88933107 24.18157632 -6.41015625 24.16015625 C-7.23644531 24.15113281 -8.06273437 24.14210938 -8.9140625 24.1328125 C-9.87119141 24.11541016 -9.87119141 24.11541016 -10.84765625 24.09765625 C-4.21879601 0.22298076 -4.21879601 0.22298076 0 0 Z " fill="#151515" transform="translate(36.84765625,27.90234375)"/>
<path d="M0 0 C0.33 0.66 0.66 1.32 1 2 C-0.98 2 -2.96 2 -5 2 C-5.20496094 2.69867187 -5.40992188 3.39734375 -5.62109375 4.1171875 C-5.89050781 5.02726562 -6.15992188 5.93734375 -6.4375 6.875 C-6.70433594 7.77992187 -6.97117187 8.68484375 -7.24609375 9.6171875 C-8 12 -8 12 -9 14 C-11.5625 14.625 -11.5625 14.625 -14 15 C-13.54636829 13.41531323 -13.08688548 11.83230076 -12.625 10.25 C-12.36976562 9.36828125 -12.11453125 8.4865625 -11.8515625 7.578125 C-10.30053476 2.88235294 -10.30053476 2.88235294 -9 1 C-6.8359375 0.390625 -6.8359375 0.390625 -4.375 0.25 C-3.55773438 0.19328125 -2.74046875 0.1365625 -1.8984375 0.078125 C-1.27195312 0.05234375 -0.64546875 0.0265625 0 0 Z " fill="#DEDEDE" transform="translate(41,23)"/>
<path d="M0 0 C0.33 0.66 0.66 1.32 1 2 C-0.98 2 -2.96 2 -5 2 C-5.66 3.98 -6.32 5.96 -7 8 C-7.66 8 -8.32 8 -9 8 C-9.38133299 6.0085944 -9.71325582 4.00720923 -10 2 C-8.41727399 0.41727399 -6.61965997 0.65264253 -4.4375 0.4375 C-3.19806641 0.31181641 -3.19806641 0.31181641 -1.93359375 0.18359375 C-0.97646484 0.09271484 -0.97646484 0.09271484 0 0 Z " fill="#C9C9C9" transform="translate(41,23)"/>
<path d="M0 0 C0.66 0 1.32 0 2 0 C2.33 1.65 2.66 3.3 3 5 C1.68 5.33 0.36 5.66 -1 6 C-0.67 4.02 -0.34 2.04 0 0 Z " fill="#D8D8D8" transform="translate(38,42)"/>
</svg>
