<?xml version="1.0" encoding="UTF-8" standalone="no"?>
<!-- Created with Inkscape (http://www.inkscape.org/) -->

<svg
   version="1.1"
   id="svg1"
   width="1122.52"
   height="599.49469"
   viewBox="0 0 1122.52 599.49469"
   sodipodi:docname="c2510427-f822-43ae-986e-3bf152c980db.ai"
   xmlns:inkscape="http://www.inkscape.org/namespaces/inkscape"
   xmlns:sodipodi="http://sodipodi.sourceforge.net/DTD/sodipodi-0.dtd"
   xmlns="http://www.w3.org/2000/svg"
   xmlns:svg="http://www.w3.org/2000/svg">
  <defs
     id="defs1">
    <clipPath
       clipPathUnits="userSpaceOnUse"
       id="clipPath2">
      <path
         d="M 0,449.621 H 841.89 V 0 H 0 Z"
         transform="translate(-241.4209,-206.2398)"
         id="path2" />
    </clipPath>
    <clipPath
       clipPathUnits="userSpaceOnUse"
       id="clipPath4">
      <path
         d="M 0,449.621 H 841.89 V 0 H 0 Z"
         transform="translate(-289.4209,-206.2398)"
         id="path4" />
    </clipPath>
    <clipPath
       clipPathUnits="userSpaceOnUse"
       id="clipPath6">
      <path
         d="M 0,449.621 H 841.89 V 0 H 0 Z"
         transform="translate(-265.4209,-194.56991)"
         id="path6" />
    </clipPath>
    <clipPath
       clipPathUnits="userSpaceOnUse"
       id="clipPath8">
      <path
         d="M 0,449.621 H 841.89 V 0 H 0 Z"
         transform="translate(-390.40921,-240.7242)"
         id="path8" />
    </clipPath>
    <clipPath
       clipPathUnits="userSpaceOnUse"
       id="clipPath10">
      <path
         d="M 0,449.621 H 841.89 V 0 H 0 Z"
         transform="translate(-440.47951,-209.39801)"
         id="path10" />
    </clipPath>
    <clipPath
       clipPathUnits="userSpaceOnUse"
       id="clipPath12">
      <path
         d="M 0,449.621 H 841.89 V 0 H 0 Z"
         transform="translate(-578.12212,-210.84231)"
         id="path12" />
    </clipPath>
    <clipPath
       clipPathUnits="userSpaceOnUse"
       id="clipPath14">
      <path
         d="M 0,449.621 H 841.89 V 0 H 0 Z"
         transform="translate(-569.52251,-228.41121)"
         id="path14" />
    </clipPath>
    <clipPath
       clipPathUnits="userSpaceOnUse"
       id="clipPath16">
      <path
         d="M 0,449.621 H 841.89 V 0 H 0 Z"
         transform="translate(-511.84372,-211.05911)"
         id="path16" />
    </clipPath>
    <clipPath
       clipPathUnits="userSpaceOnUse"
       id="clipPath18">
      <path
         d="M 0,449.621 H 841.89 V 0 H 0 Z"
         transform="translate(-496.86131,-240.4092)"
         id="path18" />
    </clipPath>
    <clipPath
       clipPathUnits="userSpaceOnUse"
       id="clipPath20">
      <path
         d="M 0,449.621 H 841.89 V 0 H 0 Z"
         transform="translate(-468.34961,-240.53721)"
         id="path20" />
    </clipPath>
    <clipPath
       clipPathUnits="userSpaceOnUse"
       id="clipPath22">
      <path
         d="M 0,449.621 H 841.89 V 0 H 0 Z"
         transform="translate(-364.60251,-243.40581)"
         id="path22" />
    </clipPath>
  </defs>
  <sodipodi:namedview
     id="namedview1"
     pagecolor="#ffffff"
     bordercolor="#000000"
     borderopacity="0.25"
     inkscape:showpageshadow="2"
     inkscape:pageopacity="0.0"
     inkscape:pagecheckerboard="0"
     inkscape:deskcolor="#d1d1d1">
    <inkscape:page
       x="0"
       y="0"
       inkscape:label="1"
       id="page1"
       width="1122.52"
       height="599.49469"
       margin="259.42667 316.56134 259.42532"
       bleed="0" />
  </sodipodi:namedview>
  <g
     id="layer-MC0"
     inkscape:groupmode="layer"
     inkscape:label="Logo">
    <path
       id="path1"
       d="m 0,0 c -2.209,0 -4,1.791 -4,4 v 29.103 c 0,2.209 1.791,4 4,4 2.209,0 4,-1.791 4,-4 V 4 C 4,1.791 2.209,0 0,0"
       style="fill:#92ceed;fill-opacity:1;fill-rule:nonzero;stroke:none"
       transform="matrix(1.3333333,0,0,-1.3333333,321.89453,324.50827)"
       clip-path="url(#clipPath2)" />
    <path
       id="path3"
       d="m 0,0 c -2.209,0 -4,1.791 -4,4 v 29.079 c 0,2.209 1.791,4 4,4 2.209,0 4,-1.791 4,-4 V 4 C 4,1.791 2.209,0 0,0"
       style="fill:#4ab2e2;fill-opacity:1;fill-rule:nonzero;stroke:none"
       transform="matrix(1.3333333,0,0,-1.3333333,385.89453,324.50827)"
       clip-path="url(#clipPath4)" />
    <path
       id="path5"
       d="m 0,0 c -2.209,0 -4,1.791 -4,4 v 52.418 c 0,2.209 1.791,4 4,4 2.209,0 4,-1.791 4,-4 V 4 C 4,1.791 2.209,0 0,0"
       style="fill:#437dc8;fill-opacity:1;fill-rule:nonzero;stroke:none"
       transform="matrix(1.3333333,0,0,-1.3333333,353.89453,340.06813)"
       clip-path="url(#clipPath6)" />
    <path
       id="path7"
       d="M 0,0 C 0,1.444 1.17,2.682 2.614,2.682 4.127,2.682 5.298,1.512 5.298,0 v -31.326 c 0,-1.514 -1.104,-2.682 -2.616,-2.682 C 1.17,-34.008 0,-32.84 0,-31.326 Z"
       style="fill:#7b7979;fill-opacity:1;fill-rule:nonzero;stroke:none"
       transform="matrix(1.3333333,0,0,-1.3333333,520.5456,278.52907)"
       clip-path="url(#clipPath8)" />
    <path
       id="path9"
       d="m 0,0 c 0,-1.513 -1.167,-2.682 -2.613,-2.682 -1.513,0 -2.684,1.169 -2.684,2.682 v 3.816 c -2.89,-4.265 -7.085,-6.911 -13.621,-6.911 -8.528,0 -16.992,6.741 -16.992,18.436 v 0.138 c 0,11.625 8.464,18.504 16.992,18.504 6.604,0 10.869,-2.578 13.621,-6.566 V 42.97 c 0,1.513 1.1,2.684 2.615,2.684 C -1.167,45.654 0,44.483 0,42.97 Z m -30.474,15.547 v -0.138 c 0,-8.391 5.847,-13.759 12.521,-13.759 6.604,0 12.862,5.573 12.862,13.759 v 0.138 c 0,8.186 -6.258,13.689 -12.862,13.689 -6.881,0 -12.521,-5.09 -12.521,-13.689"
       style="fill:#7b7979;fill-opacity:1;fill-rule:nonzero;stroke:none"
       transform="matrix(1.3333333,0,0,-1.3333333,587.306,320.29733)"
       clip-path="url(#clipPath10)" />
    <path
       id="path11"
       d="m 0,0 c -0.481,0.346 -0.962,1.033 -0.962,1.928 0,1.237 1.031,2.27 2.339,2.27 0.48,0 0.963,-0.137 1.307,-0.415 C 6.329,1.308 10.113,0 13.965,0 c 4.265,0 7.362,2.201 7.362,5.643 v 0.135 c 0,3.578 -4.196,4.954 -8.875,6.261 C 6.88,13.622 0.688,15.547 0.688,22.082 v 0.139 c 0,6.122 5.09,10.182 12.107,10.182 3.785,0 7.913,-1.171 11.351,-3.028 0.689,-0.414 1.307,-1.17 1.307,-2.202 0,-1.238 -1.031,-2.27 -2.339,-2.27 -0.482,0 -0.893,0.138 -1.169,0.275 -3.026,1.72 -6.258,2.752 -9.286,2.752 -4.197,0 -6.881,-2.201 -6.881,-5.16 v -0.138 c 0,-3.37 4.404,-4.676 9.15,-6.121 5.504,-1.65 11.419,-3.783 11.419,-10.182 V 6.193 C 26.347,-0.55 20.776,-4.471 13.689,-4.471 9.013,-4.471 3.854,-2.751 0,0"
       style="fill:#7b7979;fill-opacity:1;fill-rule:nonzero;stroke:none"
       transform="matrix(1.3333333,0,0,-1.3333333,770.82947,318.3716)"
       clip-path="url(#clipPath12)" />
    <path
       id="path13"
       d="m 0,0 c 0,8.002 -7.019,14.971 -15.48,14.971 -8.559,0 -15.499,-6.94 -15.499,-15.499 v -18.331 c 0,-1.582 1.221,-2.802 2.802,-2.802 1.582,0 2.732,1.22 2.732,2.802 l -0.003,8.234 V 0.002 c 0,5.498 4.458,9.956 9.956,9.956 5.5,0 9.959,-4.458 9.959,-9.956 v -10.645 -8.216 c 0,-1.582 1.221,-2.802 2.73,-2.802 1.58,0 2.803,1.22 2.803,2.802 0,0 0.052,17.136 0,18.859"
       style="fill:#7b7979;fill-opacity:1;fill-rule:nonzero;stroke:none"
       transform="matrix(1.3333333,0,0,-1.3333333,759.36333,294.9464)"
       clip-path="url(#clipPath14)" />
    <path
       id="path15"
       d="m 0,0 c -4.816,0 -8.616,2.054 -8.616,6.524 v 0.14 c 0,4.471 3.716,7.36 10.387,7.36 4.333,0 10.452,-1.388 10.456,-1.514 V 12.503 C 12.227,5.984 6.136,0 0,0 M 17.249,17.738 H 17.236 C 16.756,25.372 9.959,31.85 1.803,31.85 h -2.372 c -1.384,0 -2.506,-1.122 -2.506,-2.506 0,-1.385 1.122,-2.507 2.506,-2.507 h 2.36 c 5.5,0 10.367,-4.458 10.367,-9.956 v -0.448 c -3.164,0.894 -6.398,1.512 -10.937,1.512 -9.011,0 -15.203,-3.99 -15.203,-11.488 V 6.319 c 0,-7.293 6.429,-11.076 13.032,-11.076 5.998,0 10.727,3.074 13.177,7.032 v -4.074 c 0,-1.387 1.125,-2.51 2.511,-2.51 1.386,0 2.512,1.123 2.512,2.51 z"
       style="fill:#7b7979;fill-opacity:1;fill-rule:nonzero;stroke:none"
       transform="matrix(1.3333333,0,0,-1.3333333,682.45827,318.08253)"
       clip-path="url(#clipPath16)" />
    <path
       id="path17"
       d="m 0,0 c 0,1.385 -1.123,2.508 -2.508,2.508 h -1.711 -0.003 c -8.558,0 -15.498,-6.94 -15.498,-15.499 v -17.866 c 0,-1.582 1.221,-2.802 2.802,-2.802 1.582,0 2.731,1.22 2.731,2.802 l -0.002,8.233 v 10.163 c 0,5.498 4.458,9.957 9.956,9.957 0.004,0 0.009,-10e-4 0.014,-10e-4 v -0.003 h 1.711 C -1.123,-2.508 0,-1.385 0,0"
       style="fill:#7b7979;fill-opacity:1;fill-rule:nonzero;stroke:none"
       transform="matrix(1.3333333,0,0,-1.3333333,662.48173,278.94907)"
       clip-path="url(#clipPath18)" />
    <path
       id="path19"
       d="m 0,0 v 0 c 0,1.292 -1.048,2.339 -2.34,2.339 h -9.287 v 9.338 c 0,1.466 -1.195,2.815 -2.662,2.826 -1.524,0.012 -2.635,-1.23 -2.635,-2.681 v -35.875 c 0,-7.223 4.332,-10.044 10.042,-10.044 2.066,0 3.716,0.346 5.228,0.962 0.896,0.345 1.514,1.101 1.514,2.065 0,1.238 -1.031,2.269 -2.27,2.269 -0.411,0 -1.377,-0.48 -3.233,-0.48 -3.577,0 -5.984,1.582 -5.984,5.916 V -2.339 H -2.34 C -1.048,-2.339 0,-1.292 0,0"
       style="fill:#7b7979;fill-opacity:1;fill-rule:nonzero;stroke:none"
       transform="matrix(1.3333333,0,0,-1.3333333,624.46613,278.7784)"
       clip-path="url(#clipPath20)" />
    <path
       id="path21"
       d="m 0,0 c -5.071,0 -9.544,-2.549 -12.22,-6.433 -2.656,3.865 -7.076,6.409 -12.129,6.409 -8.191,0 -14.833,-6.642 -14.833,-14.833 v -19.15 c 0,-1.514 1.168,-2.682 2.682,-2.682 1.515,0 2.615,1.168 2.615,2.682 l -0.003,19.657 c 0,5.263 4.266,9.529 9.53,9.529 5.261,0 9.528,-4.266 9.528,-9.529 l -0.003,-17.462 10e-4,-10e-4 c 0,-0.003 -10e-4,-0.005 -10e-4,-0.008 0,-1.464 1.187,-2.65 2.649,-2.65 1.464,0 2.65,1.186 2.65,2.65 l -0.006,17.495 c 0,5.263 4.267,9.529 9.53,9.529 5.262,0 9.53,-4.266 9.53,-9.529 v -19.656 c 0,-1.515 1.168,-2.683 2.613,-2.683 1.513,0 2.683,1.168 2.683,2.683 l 0.017,19.125 C 14.833,-6.41 7.852,0 0,0"
       style="fill:#7b7979;fill-opacity:1;fill-rule:nonzero;stroke:none"
       transform="matrix(1.3333333,0,0,-1.3333333,486.13667,274.9536)"
       clip-path="url(#clipPath22)" />
  </g>
</svg>
