<?xml version="1.0" encoding="UTF-8"?>
<svg version="1.1" xmlns="http://www.w3.org/2000/svg" width="64" height="64">
<path d="M0 0 C1.16466797 -0.03287109 2.32933594 -0.06574219 3.52929688 -0.09960938 C12.01057861 -0.1515838 18.40492338 1.57486478 25.9375 5.4375 C26.63488281 5.79424805 27.33226562 6.15099609 28.05078125 6.51855469 C33.41606878 9.77276816 36.01635713 14.56635229 37.9375 20.4375 C38.51880642 25.83575019 38.41490465 31.14367106 38.25 36.5625 C38.22486323 38.01037777 38.20205962 39.45829801 38.18164062 40.90625 C38.12712189 44.41756426 38.04115533 47.92725195 37.9375 51.4375 C31.3125 55.4375 31.3125 55.4375 27.9375 55.4375 C27.6075 56.4275 27.2775 57.4175 26.9375 58.4375 C21.1085381 61.35198095 10.94952496 60.2342532 4.77734375 58.6015625 C1.75780768 57.33599042 -1.1360594 55.90599 -4.0625 54.4375 C-5.59126948 53.75963334 -7.12417234 53.09104426 -8.66015625 52.4296875 C-15.82577088 49.33536372 -15.82577088 49.33536372 -18.15625 48.3046875 C-19.14141602 47.87325439 -19.14141602 47.87325439 -20.14648438 47.43310547 C-22.43867182 46.24203253 -24.21078345 45.2639475 -26.0625 43.4375 C-26.58007812 40.66943359 -26.58007812 40.66943359 -26.59375 37.3359375 C-26.59890625 36.12292969 -26.6040625 34.90992188 -26.609375 33.66015625 C-26.59390625 32.39042969 -26.5784375 31.12070312 -26.5625 29.8125 C-26.57796875 28.56597656 -26.5934375 27.31945312 -26.609375 26.03515625 C-26.57989098 19.05481525 -26.41891776 12.22730874 -22.0625 6.4375 C-19.92382812 5.20458984 -19.92382812 5.20458984 -18.0625 4.4375 C-18.0625 3.7775 -18.0625 3.1175 -18.0625 2.4375 C-12.13265495 -0.28610349 -6.42423272 0.03126993 0 0 Z " fill="#8A8A8A" transform="translate(26.0625,1.5625)"/>
<path d="M0 0 C0.33 0.66 0.66 1.32 1 2 C2.85345726 2.28203856 2.85345726 2.28203856 5.125 2.3125 C10.63551084 2.73393878 15.56729143 4.34276506 20.73291016 6.18481445 C24.13820297 7.39829284 27.43175291 8.40189382 31 9 C31 8.34 31 7.68 31 7 C30.34 6.67 29.68 6.34 29 6 C31.01822917 6.09765625 33.03645833 6.1953125 35.0546875 6.29296875 C35.69664063 6.19628906 36.33859375 6.09960938 37 6 C37.66 5.01 38.32 4.02 39 3 C42 2.6875 42 2.6875 45 3 C45.66 3.66 46.32 4.32 47 5 C46.67 5.99 46.34 6.98 46 8 C45.01 7.67 44.02 7.34 43 7 C40.81013728 7.75731446 40.81013728 7.75731446 38.5625 8.9375 C35.20506404 10.61337751 33.92149169 11 30 11 C30.19916016 11.99580078 30.19916016 11.99580078 30.40234375 13.01171875 C30.93489583 15.67447917 31.46744792 18.33723958 32 21 C32.17402344 21.77537109 32.34804688 22.55074219 32.52734375 23.34960938 C32.99887046 25.9936662 33.11411337 28.39952105 33.09765625 31.08203125 C33.09443359 32.01337891 33.09121094 32.94472656 33.08789062 33.90429688 C33.07532227 35.34385742 33.07532227 35.34385742 33.0625 36.8125 C33.05798828 37.79154297 33.05347656 38.77058594 33.04882812 39.77929688 C33.03708684 42.18626111 33.02066419 44.59309857 33 47 C31.02 47.495 31.02 47.495 29 48 C28.82597656 47.4225 28.65195312 46.845 28.47265625 46.25 C26.26452649 42.87630572 22.98313393 41.65787123 19.4375 40 C18.71385254 39.64897217 17.99020508 39.29794434 17.24462891 38.9362793 C13.49381688 37.12897814 9.71372271 35.42568536 5.875 33.8125 C1.91912816 32.09651721 -0.94340774 30.05659226 -4 27 C-4 26.01 -4 25.02 -4 24 C-4.66 24 -5.32 24 -6 24 C-6.75173142 15.12956921 -3.94522747 7.89045494 0 0 Z " fill="#AEAEAE" transform="translate(9,7)"/>
<path d="M0 0 C6.04161459 0.2685162 9.97323911 2.53096502 15.16796875 5.515625 C18.57184147 7.2997238 21.9072781 8.30525227 25.609375 9.27734375 C28.0494824 10.01495791 30.11361774 11.02020376 32.375 12.1875 C38.27940615 14.90938936 44.87691052 15.11150682 51.14453125 13.421875 C53.84378221 12.31629945 56.267987 10.83555343 58.75 9.3125 C61 8 61 8 64 8 C63.875 10.3125 63.875 10.3125 63 13 C59.79266696 15.02201431 57.80845564 16 54 16 C53.505 17.485 53.505 17.485 53 19 C47.1710381 21.91448095 37.01202496 20.7967532 30.83984375 19.1640625 C27.82030768 17.89849042 24.9264406 16.46849 22 15 C20.47123052 14.32213334 18.93832766 13.65354426 17.40234375 12.9921875 C2.48390376 6.54996503 2.48390376 6.54996503 0 4 C0 2.68 0 1.36 0 0 Z " fill="#050505" transform="translate(0,41)"/>
<path d="M0 0 C1.19818359 -0.01611328 2.39636719 -0.03222656 3.63085938 -0.04882812 C10.37679043 -0.05254489 15.56198177 0.42856036 21.6875 3.3125 C21.6875 3.6425 21.6875 3.9725 21.6875 4.3125 C14.0625 3.4375 14.0625 3.4375 10.6875 2.3125 C9.14800671 2.22067058 7.60472145 2.18247648 6.0625 2.1875 C5.26585938 2.18492187 4.46921875 2.18234375 3.6484375 2.1796875 C1.68396464 2.09679926 1.68396464 2.09679926 0.6875 3.3125 C6.6275 5.2925 12.5675 7.2725 18.6875 9.3125 C18.6875 9.9725 18.6875 10.6325 18.6875 11.3125 C17.0375 11.6425 15.3875 11.9725 13.6875 12.3125 C13.6875 12.9725 13.6875 13.6325 13.6875 14.3125 C7.89347948 13.73048214 2.61967487 12.58912858 -2.9375 10.875 C-3.66195313 10.65779297 -4.38640625 10.44058594 -5.1328125 10.21679688 C-8.34257624 9.24863444 -11.49881952 8.24421193 -14.6484375 7.08984375 C-17.37965707 6.01860649 -17.37965707 6.01860649 -20.3125 7.3125 C-21.11462628 9.18637216 -21.11462628 9.18637216 -21.5 11.375 C-21.65855469 12.10847656 -21.81710938 12.84195312 -21.98046875 13.59765625 C-22.09003906 14.16355469 -22.19960938 14.72945312 -22.3125 15.3125 C-22.9725 15.3125 -23.6325 15.3125 -24.3125 15.3125 C-24.30089844 16.13492187 -24.28929687 16.95734375 -24.27734375 17.8046875 C-24.22148042 24.71577971 -24.44555966 31.45438265 -25.3125 38.3125 C-23.9925 38.6425 -22.6725 38.9725 -21.3125 39.3125 C-22.3025 39.8075 -22.3025 39.8075 -23.3125 40.3125 C-24.3025 39.9825 -25.2925 39.6525 -26.3125 39.3125 C-26.42995244 35.50026488 -26.50016603 31.68850318 -26.5625 27.875 C-26.59601562 26.80572266 -26.62953125 25.73644531 -26.6640625 24.63476562 C-26.74559998 17.96907675 -26.3661058 11.86770376 -22.3125 6.3125 C-20.17285156 5.07250977 -20.17285156 5.07250977 -18.3125 4.3125 C-18.3125 3.6525 -18.3125 2.9925 -18.3125 2.3125 C-12.320649 -0.4634365 -6.49189851 -0.01729328 0 0 Z " fill="#838383" transform="translate(26.3125,1.6875)"/>
<path d="M0 0 C0.99 0.33 1.98 0.66 3 1 C2.47599609 2.25103516 2.47599609 2.25103516 1.94140625 3.52734375 C-0.72995606 10.13385733 -2.63762771 15.8733449 -3 23 C-2.34 23 -1.68 23 -1 23 C-0.38125 24.11375 -0.38125 24.11375 0.25 25.25 C3.76632535 30.77565412 9.25834556 32.55641686 15.12109375 34.78515625 C20.61906654 37.10519633 25.79392067 40.09504038 31 43 C31 43.99 31 44.98 31 46 C30.01 45.67 29.02 45.34 28 45 C28 44.34 28 43.68 28 43 C27.41734375 43.05800781 26.8346875 43.11601563 26.234375 43.17578125 C14.53976247 43.81935269 4.86140561 37.64895479 -5 32 C-5.1567564 24.28410183 -4.67453101 16.68483539 -4 9 C-3.34 9 -2.68 9 -2 9 C-1.7834375 7.0509375 -1.7834375 7.0509375 -1.5625 5.0625 C-1.125 1.125 -1.125 1.125 0 0 Z " fill="#969696" transform="translate(6,8)"/>
<path d="M0 0 C0.33 1.65 0.66 3.3 1 5 C0.01 5.33 -0.98 5.66 -2 6 C-1.690625 6.70125 -1.38125 7.4025 -1.0625 8.125 C1.35199381 14.65833618 1.11004998 21.12798991 1 28 C0.34 27.67 -0.32 27.34 -1 27 C-1.37238718 24.67258011 -1.69836866 22.33764285 -2 20 C-2.350625 18.80375 -2.70125 17.6075 -3.0625 16.375 C-3.89927404 13.36261345 -4.18742394 11.09249501 -4 8 C-5.32 8 -6.64 8 -8 8 C-8.33 6.35 -8.66 4.7 -9 3 C-3.375 0 -3.375 0 0 0 Z " fill="#2E2B29" transform="translate(55,19)"/>
<path d="M0 0 C3 -0.3125 3 -0.3125 6 0 C6.66 0.66 7.32 1.32 8 2 C7.67 2.99 7.34 3.98 7 5 C6.01 4.67 5.02 4.34 4 4 C1.81013728 4.75731446 1.81013728 4.75731446 -0.4375 5.9375 C-3.79493596 7.61337751 -5.07850831 8 -9 8 C-9.33 9.32 -9.66 10.64 -10 12 C-10 10.35 -10 8.7 -10 7 C-10.66 6.67 -11.32 6.34 -12 6 C-10.68 6 -9.36 6 -8 6 C-8 5.34 -8 4.68 -8 4 C-8.66 3.67 -9.32 3.34 -10 3 C-7.98177083 3.09765625 -5.96354167 3.1953125 -3.9453125 3.29296875 C-2.98238281 3.14794922 -2.98238281 3.14794922 -2 3 C-1.34 2.01 -0.68 1.02 0 0 Z " fill="#A0A0A0" transform="translate(48,10)"/>
<path d="M0 0 C0.66 0.33 1.32 0.66 2 1 C1.34 1.66 0.68 2.32 0 3 C-0.67292501 4.96690374 -0.67292501 4.96690374 -1.125 7.125 C-1.558125 9.043125 -1.558125 9.043125 -2 11 C-2.66 11 -3.32 11 -4 11 C-3.98839844 11.82242187 -3.97679687 12.64484375 -3.96484375 13.4921875 C-3.90898042 20.40327971 -4.13305966 27.14188265 -5 34 C-3.68 34.33 -2.36 34.66 -1 35 C-1.99 35.495 -1.99 35.495 -3 36 C-3.99 35.67 -4.98 35.34 -6 35 C-6.11745244 31.18776488 -6.18766603 27.37600318 -6.25 23.5625 C-6.28351562 22.49322266 -6.31703125 21.42394531 -6.3515625 20.32226562 C-6.43635064 13.39083479 -5.68082641 7.97245408 -2 2 C-1.34 1.34 -0.68 0.68 0 0 Z " fill="#6D6D6D" transform="translate(6,6)"/>
<path d="M0 0 C7.7498635 0.52541447 14.6450086 2.55591476 22 5 C22 5.66 22 6.32 22 7 C13.88861071 6.63379732 6.66964333 4.58459767 -1 2 C-0.67 1.34 -0.34 0.68 0 0 Z " fill="#1C1C1C" transform="translate(23,6)"/>
<path d="M0 0 C1.19818359 -0.01611328 2.39636719 -0.03222656 3.63085938 -0.04882812 C10.37679043 -0.05254489 15.56198177 0.42856036 21.6875 3.3125 C21.6875 3.6425 21.6875 3.9725 21.6875 4.3125 C14.0625 3.4375 14.0625 3.4375 10.6875 2.3125 C7.6710999 2.08499866 4.64915141 2.12268198 1.625 2.125 C0.77188232 2.12435547 -0.08123535 2.12371094 -0.96020508 2.12304688 C-6.98113726 2.17351283 -12.4682481 2.77958147 -18.3125 4.3125 C-18.3125 3.6525 -18.3125 2.9925 -18.3125 2.3125 C-12.320649 -0.4634365 -6.49189851 -0.01729328 0 0 Z " fill="#696969" transform="translate(26.3125,1.6875)"/>
<path d="M0 0 C4.98844309 0.6099126 9.60155346 1.63474435 14.4375 3.0625 C16.29181641 3.60583984 16.29181641 3.60583984 18.18359375 4.16015625 C19.11300781 4.43730469 20.04242188 4.71445313 21 5 C21 5.66 21 6.32 21 7 C14.00822819 6.4621714 7.4680894 4.74246991 1 2 C0.67 1.34 0.34 0.68 0 0 Z " fill="#353535" transform="translate(19,9)"/>
<path d="M0 0 C2.69423287 4.04134931 3.11848959 5.80989528 3.0625 10.625 C3.05347656 11.62789062 3.04445312 12.63078125 3.03515625 13.6640625 C3.02355469 14.43492188 3.01195312 15.20578125 3 16 C2.34 15.67 1.68 15.34 1 15 C-0.0283474 9.96109772 -0.08970351 5.11310018 0 0 Z " fill="#242424" transform="translate(53,31)"/>
<path d="M0 0 C1.43791516 0.14168137 2.8753237 0.28851043 4.3125 0.4375 C5.11300781 0.51871094 5.91351563 0.59992187 6.73828125 0.68359375 C9 1 9 1 12 2 C12 2.66 12 3.32 12 4 C10.37399059 3.9129995 8.74910322 3.8048219 7.125 3.6875 C6.22007813 3.62949219 5.31515625 3.57148438 4.3828125 3.51171875 C2 3 2 3 0 0 Z " fill="#141414" transform="translate(33,9)"/>
<path d="M0 0 C2.31 0.33 4.62 0.66 7 1 C6.34 2.32 5.68 3.64 5 5 C3.68 5 2.36 5 1 5 C0.67 6.32 0.34 7.64 0 9 C0 7.35 0 5.7 0 4 C-0.66 3.67 -1.32 3.34 -2 3 C-0.68 3 0.64 3 2 3 C2 2.34 2 1.68 2 1 C1.34 0.67 0.68 0.34 0 0 Z " fill="#999999" transform="translate(38,13)"/>
<path d="M0 0 C0.99 0.33 1.98 0.66 3 1 C1.35 5.29 -0.3 9.58 -2 14 C-2.33 14 -2.66 14 -3 14 C-2.48594831 9.03083364 -1.76615118 4.70973649 0 0 Z " fill="#9D9D9D" transform="translate(6,8)"/>
<path d="M0 0 C0 0.66 0 1.32 0 2 C-1.258125 1.87625 -2.51625 1.7525 -3.8125 1.625 C-4.87404297 1.52058594 -4.87404297 1.52058594 -5.95703125 1.4140625 C-8 1 -8 1 -11 -1 C-6.74938644 -2.41687119 -4.28148375 -1.19320039 0 0 Z " fill="#494949" transform="translate(40,14)"/>
<path d="M0 0 C1.258125 -0.04125 2.51625 -0.0825 3.8125 -0.125 C4.52019531 -0.14820313 5.22789063 -0.17140625 5.95703125 -0.1953125 C8 0 8 0 11 2 C10.67 2.66 10.34 3.32 10 4 C6.7 3.01 3.4 2.02 0 1 C0 0.67 0 0.34 0 0 Z " fill="#7F7F7F" transform="translate(16,47)"/>
<path d="M0 0 C0.04125 0.61875 0.0825 1.2375 0.125 1.875 C0.41375 2.57625 0.7025 3.2775 1 4 C3.99615946 5.3045656 3.99615946 5.3045656 7 6 C6.67 6.66 6.34 7.32 6 8 C4.02 7.34 2.04 6.68 0 6 C0 4.02 0 2.04 0 0 Z " fill="#9E9E9E" transform="translate(1,34)"/>
<path d="M0 0 C-0.99 0 -1.98 0 -3 0 C-3 0.66 -3 1.32 -3 2 C-4.98 2.33 -6.96 2.66 -9 3 C-9 2.34 -9 1.68 -9 1 C-5.57367167 -0.61798838 -3.61944899 -1.34053666 0 0 Z " fill="#616161" transform="translate(17,3)"/>
</svg>
